HIERARCHY
ROOT hip
{
  OFFSET 0.0 0.0 0.0
  CHANNELS 6 Xposition Yposition Zposition Zrotation Yrotation Xrotation
  JOINT abdomen
  {
    OFFSET 0.0 20.6881 -0.73152
    CHANNELS 3 Zrotation Xrotation Yrotation
    JOINT chest
    {
      OFFSET 0.0 11.7043 -0.48768
      CHANNELS 3 Zrotation Xrotation Yrotation
      JOINT neck
      {
        OFFSET 0.0 22.1894 -2.19456
        CHANNELS 3 Zrotation Xrotation Yrotation
        JOINT head
        {
          OFFSET -0.24384 7.07133 1.2192
          CHANNELS 3 Zrotation Xrotation Yrotation
          JOINT leftEye
          {
            OFFSET 4.14528 8.04674 8.04672
            CHANNELS 3 Zrotation Xrotation Yrotation
            End Site
            {
              OFFSET 1.0 0.0 0.0
            }
          }
          JOINT rightEye
          {
            OFFSET -3.6576 8.04674 8.04672
            CHANNELS 3 Zrotation Xrotation Yrotation
            End Site
            {
              OFFSET 1.0 0.0 0.0
            }
          }
        }
      }
      JOINT rCollar
      {
        OFFSET -2.68224 19.2634 -4.8768
        CHANNELS 3 Zrotation Xrotation Yrotation
        JOINT rShldr
        {
          OFFSET -8.77824 -1.95073 1.46304
          CHANNELS 3 Zrotation Xrotation Yrotation
          JOINT rForeArm
          {
            OFFSET -28.1742 -1.7115 0.48768
            CHANNELS 3 Zrotation Xrotation Yrotation
            JOINT rHand
            {
              OFFSET -22.5879 0.773209 7.07136
              CHANNELS 3 Zrotation Xrotation Yrotation
              JOINT rThumb1
              {
                OFFSET -1.2192 -0.487915 3.41376
                CHANNELS 3 Zrotation Xrotation Yrotation
                JOINT rThumb2
                {
                  OFFSET -3.37035 -0.52449 3.41376
                  CHANNELS 3 Zrotation Xrotation Yrotation
                  End Site
                  {
                    OFFSET -1.78271 -1.18214 1.43049
                  }
                }
              }
              JOINT rIndex1
              {
                OFFSET -7.75947 0.938293 5.60832
                CHANNELS 3 Zrotation Xrotation Yrotation
                JOINT rIndex2
                {
                  OFFSET -2.54057 -0.884171 1.56538
                  CHANNELS 3 Zrotation Xrotation Yrotation
                  End Site
                  {
                    OFFSET -1.62519 -0.234802 1.16502
                  }
                }
              }
              JOINT rMid1
              {
                OFFSET -8.24714 1.18213 3.41376
                CHANNELS 3 Zrotation Xrotation Yrotation
                JOINT rMid2
                {
                  OFFSET -3.10165 -0.590103 1.0647
                  CHANNELS 3 Zrotation Xrotation Yrotation
                  End Site
                  {
                    OFFSET -2.48547 -0.328903 0.83742
                  }
                }
              }
              JOINT rRing1
              {
                OFFSET -8.82822 0.546677 1.51678
                CHANNELS 3 Zrotation Xrotation Yrotation
                JOINT rRing2
                {
                  OFFSET -2.60934 -0.819778 -0.0198488
                  CHANNELS 3 Zrotation Xrotation Yrotation
                  End Site
                  {
                    OFFSET -2.33842 -0.294052 0.168128
                  }
                }
              }
              JOINT rPinky1
              {
                OFFSET -8.27202 -0.0477905 -0.4584
                CHANNELS 3 Zrotation Xrotation Yrotation
                JOINT rPinky2
                {
                  OFFSET -1.82734 -0.647385 -0.700984
                  CHANNELS 3 Zrotation Xrotation Yrotation
                  End Site
                  {
                    OFFSET -1.69225 -0.51767 -0.607171
                  }
                }
              }
            }
          }
        }
      }
      JOINT lCollar
      {
        OFFSET 2.68224 19.2634 -4.8768
        CHANNELS 3 Zrotation Xrotation Yrotation
        JOINT lShldr
        {
          OFFSET 8.77824 -1.95073 1.46304
          CHANNELS 3 Zrotation Xrotation Yrotation
          JOINT lForeArm
          {
            OFFSET 28.1742 -1.7115 0.48768
            CHANNELS 3 Zrotation Xrotation Yrotation
            JOINT lHand
            {
              OFFSET 22.5879 0.773209 7.07136
              CHANNELS 3 Zrotation Xrotation Yrotation
              JOINT lThumb1
              {
                OFFSET 1.2192 -0.487915 3.41376
                CHANNELS 3 Zrotation Xrotation Yrotation
                JOINT lThumb2
                {
                  OFFSET 3.37035 -0.52449 3.41376
                  CHANNELS 3 Zrotation Xrotation Yrotation
                  End Site
                  {
                    OFFSET 1.78271 -1.18214 1.43049
                  }
                }
              }
              JOINT lIndex1
              {
                OFFSET 7.75947 0.938293 5.60832
                CHANNELS 3 Zrotation Xrotation Yrotation
                JOINT lIndex2
                {
                  OFFSET 2.54057 -0.884171 1.56538
                  CHANNELS 3 Zrotation Xrotation Yrotation
                  End Site
                  {
                    OFFSET 1.62519 -0.234802 1.16502
                  }
                }
              }
              JOINT lMid1
              {
                OFFSET 8.24714 1.18213 3.41376
                CHANNELS 3 Zrotation Xrotation Yrotation
                JOINT lMid2
                {
                  OFFSET 3.10165 -0.590103 1.0647
                  CHANNELS 3 Zrotation Xrotation Yrotation
                  End Site
                  {
                    OFFSET 2.48547 -0.328903 0.83742
                  }
                }
              }
              JOINT lRing1
              {
                OFFSET 8.82822 0.546677 1.51678
                CHANNELS 3 Zrotation Xrotation Yrotation
                JOINT lRing2
                {
                  OFFSET 2.60934 -0.819778 -0.0198488
                  CHANNELS 3 Zrotation Xrotation Yrotation
                  End Site
                  {
                    OFFSET 2.33842 -0.294052 0.168128
                  }
                }
              }
              JOINT lPinky1
              {
                OFFSET 8.27202 -0.0477905 -0.4584
                CHANNELS 3 Zrotation Xrotation Yrotation
                JOINT lPinky2
                {
                  OFFSET 1.82734 -0.647385 -0.700984
                  CHANNELS 3 Zrotation Xrotation Yrotation
                  End Site
                  {
                    OFFSET 1.69225 -0.51767 -0.607171
                  }
                }
              }
            }
          }
        }
      }
    }
  }
  JOINT rButtock
  {
    OFFSET -8.77824 4.35084 1.2192
    CHANNELS 3 Zrotation Xrotation Yrotation
    JOINT rThigh
    {
      OFFSET 0.0 -1.70687 -2.19456
      CHANNELS 3 Zrotation Xrotation Yrotation
      JOINT rShin
      {
        OFFSET 0.0 -36.8199 0.73152
        CHANNELS 3 Zrotation Xrotation Yrotation
        JOINT rFoot
        {
          OFFSET 0.73152 -45.1104 -5.12064
          CHANNELS 3 Zrotation Xrotation Yrotation
          End Site
          {
            OFFSET -1.1221 -3.69964 12.103
          }
        }
      }
    }
  }
  JOINT lButtock
  {
    OFFSET 8.77824 4.35084 1.2192
    CHANNELS 3 Zrotation Xrotation Yrotation
    JOINT lThigh
    {
      OFFSET 0.0 -1.70687 -2.19456
      CHANNELS 3 Zrotation Xrotation Yrotation
      JOINT lShin
      {
        OFFSET 0.0 -36.8199 0.73152
        CHANNELS 3 Zrotation Xrotation Yrotation
        JOINT lFoot
        {
          OFFSET -0.73152 -45.1104 -5.12064
          CHANNELS 3 Zrotation Xrotation Yrotation
          End Site
          {
            OFFSET 1.1221 -3.69964 12.103
          }
        }
      }
    }
  }
}
MOTION
Frames: 4
Frame Time: 0.00833333
26.9976 80.3118 -68.9058 -5.1566 -33.1926 5.2228 -1.55467 5.63435 10.3663 -2.2495 -0.145148 2.87186 6.25577 9.77319 0.791284 1.90752 -26.3622 1.30914 -0.0 0.0 0.0 -0.0 0.0 0.0 2.35868e-15 3.02176e-14 -2.67018e-13 85.7351 42.2779 -11.4704 -23.6863 -18.5223 48.6317 -0.0825304 8.16797 1.15585 4.29041e-11 -3.39208e-10 3.6939e-10 7.79514e-11 -5.91513e-10 6.37075e-10 4.29037e-11 -3.39207e-10 3.69371e-10 7.73091 5.47488 0.417314 4.29019e-11 -3.39206e-10 3.69386e-10 2.90554 0.965183 0.102902 4.2907e-11 -3.39206e-10 3.69389e-10 10.2786 0.731801 0.0259123 4.28995e-11 -3.39205e-10 3.69399e-10 2.22167 -0.733487 -0.20892 2.41233e-15 3.02133e-14 -2.67266e-13 -80.8896 49.5258 9.00352 21.4529 -14.9567 -42.3355 0.436832 -18.4556 2.68834 2.65802e-10 7.4827e-10 5.27177e-10 4.51386e-10 1.29314e-09 9.16829e-10 2.65792e-10 7.48266e-10 5.27196e-10 -7.73091 5.47488 -0.417314 2.65797e-10 7.48261e-10 5.27167e-10 -2.90554 0.965183 -0.102902 2.65791e-10 7.48267e-10 5.27186e-10 -10.2786 0.731801 -0.0259123 2.65805e-10 7.48267e-10 5.27174e-10 -2.22167 -0.733487 0.20892 -2.03217e-16 0.0 -3.88251e-19 -4.21002 -29.5872 -19.9859 -2.00565 69.9237 2.55962 -0.100823 7.44544 -1.50471 2.03217e-16 0.0 3.88251e-19 14.5309 -39.0378 2.89281 0.365502 40.3211 -0.405714 1.97352 -0.182984 14.9424
26.7728 80.2114 -68.0465 -4.612 -33.9952 4.793 -2.14776 5.74428 10.5099 -2.27251 -0.269453 2.9031 6.34401 9.7286 0.987979 1.79657 -26.1553 1.65814 -0.0 0.0 0.0 -0.0 0.0 0.0 -2.25034e-15 2.28485e-14 -1.66441e-13 85.8252 42.0305 -11.6575 -23.804 -18.7362 48.991 -0.0804886 8.0648 1.14106 2.33415e-10 -5.73373e-10 1.38836e-10 4.05814e-10 -9.93801e-10 2.37206e-10 2.33415e-10 -5.73372e-10 1.38814e-10 7.73091 5.47488 0.417314 2.33414e-10 -5.73372e-10 1.38831e-10 2.90554 0.965183 0.102902 2.3342e-10 -5.73372e-10 1.38833e-10 10.2786 0.731801 0.0259123 2.33411e-10 -5.73371e-10 1.38842e-10 2.22167 -0.733487 -0.20892 -2.17897e-15 2.28474e-14 -1.6664e-13 -81.2991 49.311 9.44399 21.4493 -14.9515 -42.3262 0.450534 -18.735 2.73202 2.11953e-10 6.49387e-10 4.46671e-10 3.58946e-10 1.12232e-09 7.76941e-10 2.11943e-10 6.49382e-10 4.46687e-10 -7.73091 5.47488 -0.417314 2.11949e-10 6.49378e-10 4.46662e-10 -2.90554 0.965183 -0.102902 2.11941e-10 6.49384e-10 4.46679e-10 -10.2786 0.731801 -0.0259123 2.11955e-10 6.49385e-10 4.46667e-10 -2.22167 -0.733487 0.20892 -2.03217e-16 0.0 -3.88251e-19 -6.66677 -31.6274 -22.5816 -2.5832 73.1838 3.14241 0.0122431 9.93703 -2.77446 2.03217e-16 0.0 3.88251e-19 14.3929 -38.5124 3.62492 0.377249 41.0293 -0.445541 2.09908 -0.562948 15.0296
26.5414 80.0978 -67.1918 -4.032 -34.7721 4.3246 -2.75548 5.87125 10.6217 -2.29114 -0.413268 2.92527 6.42299 9.688 1.19503 1.65075 -25.973 2.02179 -0.0 0.0 0.0 -0.0 0.0 0.0 7.2882e-15 2.75299e-14 3.7238e-14 85.8948 41.8138 -11.8369 -23.9374 -18.9812 49.4087 -0.0791353 7.99731 1.13139 3.94178e-10 -6.98069e-10 -2.65985e-10 6.80884e-10 -1.2052e-09 -4.63654e-10 3.94179e-10 -6.98068e-10 -2.6601e-10 7.73091 5.47488 0.417314 3.94177e-10 -6.98069e-10 -2.65993e-10 2.90554 0.965183 0.102902 3.94187e-10 -6.9807e-10 -2.65991e-10 10.2786 0.731801 0.0259123 3.94175e-10 -6.98069e-10 -2.65985e-10 2.22167 -0.733487 -0.20892 7.37263e-15 2.75336e-14 3.71075e-14 -81.7102 49.1105 9.89803 21.4577 -14.9635 -42.3483 0.468393 -19.0882 2.7875 -7.6735e-12 2.93702e-10 2.32314e-10 -1.77437e-11 5.06931e-10 4.03049e-10 -7.68473e-12 2.93697e-10 2.32327e-10 -7.73091 5.47488 -0.417314 -7.67651e-12 2.93696e-10 2.32309e-10 -2.90554 0.965183 -0.102902 -7.68705e-12 2.937e-10 2.32321e-10 -10.2786 0.731801 -0.0259123 -7.67224e-12 2.93702e-10 2.32309e-10 -2.22167 -0.733487 0.20892 -2.03217e-16 0.0 -3.88251e-19 -9.35597 -33.6659 -25.3683 -3.40977 76.3464 3.96655 0.20285 11.8774 -4.3127 2.03217e-16 0.0 3.88251e-19 14.2358 -38.0068 4.42287 0.389986 41.76 -0.493649 2.25295 -1.04833 15.0786
26.2956 79.9707 -66.3458 -3.4412 -35.5253 3.8228 -3.32749 6.02366 10.7207 -2.30777 -0.562301 2.9442 6.50076 9.65837 1.40817 1.46278 -25.8307 2.38999 -0.0 0.0 0.0 -0.0 0.0 0.0 1.81355e-14 3.07705e-14 2.44599e-13 85.9397 41.6101 -12.0052 -24.0786 -19.2448 49.8591 -0.0780764 7.94545 1.12395 5.60622e-10 -8.10764e-10 -6.87417e-10 9.65638e-10 -1.3956e-09 -1.19307e-09 5.60625e-10 -8.10763e-10 -6.87443e-10 7.73091 5.47488 0.417314 5.60622e-10 -8.10765e-10 -6.87426e-10 2.90554 0.965183 0.102902 5.60636e-10 -8.10767e-10 -6.87425e-10 10.2786 0.731801 0.0259123 5.60621e-10 -8.10767e-10 -6.87422e-10 2.22167 -0.733487 -0.20892 1.82246e-14 3.07783e-14 2.44528e-13 -82.0958 48.9263 10.3199 21.4665 -14.9761 -42.3713 0.485631 -19.4167 2.83941 -1.93719e-10 -7.82614e-11 -1.60548e-11 -3.35842e-10 -1.36044e-10 -2.93054e-11 -1.93732e-10 -7.82654e-11 -1.60461e-11 -7.73091 5.47488 -0.417314 -1.93721e-10 -7.82651e-11 -1.60567e-11 -2.90554 0.965183 -0.102902 -1.93734e-10 -7.82619e-11 -1.60511e-11 -10.2786 0.731801 -0.0259123 -1.93719e-10 -7.82596e-11 -1.60628e-11 -2.22167 -0.733487 0.20892 -2.03217e-16 0.0 -3.88251e-19 -12.1349 -35.615 -28.1545 -4.58509 79.2298 5.13858 0.423725 13.314 -5.6668 2.03217e-16 0.0 3.88251e-19 14.1116 -37.5015 5.25069 0.403076 42.5071 -0.548103 2.42536 -1.62313 15.0897
